<svg xmlns="http://www.w3.org/2000/svg" style="background-color: rgb(240, 240, 240);" width="800" height="600"><g transform="translate(80,100)"><g fill="#B20000"><rect x="10.163934426229503" y="400" height="0" width="91.47540983606557"></rect><rect x="111.80327868852457" y="400" height="0" width="91.47540983606557"></rect><rect x="213.44262295081964" y="400" height="0" width="91.47540983606557"></rect><rect x="315.0819672131147" y="400" height="0" width="91.47540983606557"></rect><rect x="416.7213114754098" y="400" height="0" width="91.47540983606557"></rect><rect x="518.3606557377049" y="400" height="0" width="91.47540983606557"></rect></g><g fill="#0073A5"><rect x="10.163934426229503" y="400" height="0" width="91.47540983606557"></rect><rect x="111.80327868852457" y="400" height="0" width="91.47540983606557"></rect><rect x="213.44262295081964" y="400" height="0" width="91.47540983606557"></rect><rect x="315.0819672131147" y="400" height="0" width="91.47540983606557"></rect><rect x="416.7213114754098" y="400" height="0" width="91.47540983606557"></rect><rect x="518.3606557377049" y="400" height="0" width="91.47540983606557"></rect></g><g fill="#B2B200"><rect x="10.163934426229503" y="400" height="0" width="91.47540983606557"></rect><rect x="111.80327868852457" y="400" height="0" width="91.47540983606557"></rect><rect x="213.44262295081964" y="400" height="0" width="91.47540983606557"></rect><rect x="315.0819672131147" y="400" height="0" width="91.47540983606557"></rect><rect x="416.7213114754098" y="400" height="0" width="91.47540983606557"></rect><rect x="518.3606557377049" y="400" height="0" width="91.47540983606557"></rect></g><g fill="#B200B2"><rect x="10.163934426229503" y="400" height="0" width="91.47540983606557"></rect><rect x="111.80327868852457" y="250" height="150" width="91.47540983606557"></rect><rect x="213.44262295081964" y="310" height="90" width="91.47540983606557"></rect><rect x="315.0819672131147" y="280" height="120" width="91.47540983606557"></rect><rect x="416.7213114754098" y="400" height="0" width="91.47540983606557"></rect><rect x="518.3606557377049" y="400" height="0" width="91.47540983606557"></rect></g><g fill="#483D8B"><rect x="10.163934426229503" y="400" height="0" width="91.47540983606557"></rect><rect x="111.80327868852457" y="250" height="0" width="91.47540983606557"></rect><rect x="213.44262295081964" y="310" height="0" width="91.47540983606557"></rect><rect x="315.0819672131147" y="280" height="0" width="91.47540983606557"></rect><rect x="416.7213114754098" y="400" height="0" width="91.47540983606557"></rect><rect x="518.3606557377049" y="400" height="0" width="91.47540983606557"></rect></g><g fill="#CC8400"><rect x="10.163934426229503" y="400" height="0" width="91.47540983606557"></rect><rect x="111.80327868852457" y="250" height="0" width="91.47540983606557"></rect><rect x="213.44262295081964" y="310" height="0" width="91.47540983606557"></rect><rect x="315.0819672131147" y="280" height="0" width="91.47540983606557"></rect><rect x="416.7213114754098" y="400" height="0" width="91.47540983606557"></rect><rect x="518.3606557377049" y="400" height="0" width="91.47540983606557"></rect></g><g fill="#00008B"><rect x="10.163934426229503" y="400" height="0" width="91.47540983606557"></rect><rect x="111.80327868852457" y="229.99999999999997" height="20.00000000000003" width="91.47540983606557"></rect><rect x="213.44262295081964" y="310" height="0" width="91.47540983606557"></rect><rect x="315.0819672131147" y="280" height="0" width="91.47540983606557"></rect><rect x="416.7213114754098" y="380" height="20" width="91.47540983606557"></rect><rect x="518.3606557377049" y="400" height="0" width="91.47540983606557"></rect></g><g fill="#3B4B27"><rect x="10.163934426229503" y="400" height="0" width="91.47540983606557"></rect><rect x="111.80327868852457" y="229.99999999999997" height="0" width="91.47540983606557"></rect><rect x="213.44262295081964" y="280" height="30" width="91.47540983606557"></rect><rect x="315.0819672131147" y="229.99999999999997" height="50.00000000000003" width="91.47540983606557"></rect><rect x="416.7213114754098" y="350" height="30" width="91.47540983606557"></rect><rect x="518.3606557377049" y="380" height="20" width="91.47540983606557"></rect></g><g fill="#54586B"><rect x="10.163934426229503" y="400" height="0" width="91.47540983606557"></rect><rect x="111.80327868852457" y="229.99999999999997" height="0" width="91.47540983606557"></rect><rect x="213.44262295081964" y="280" height="0" width="91.47540983606557"></rect><rect x="315.0819672131147" y="229.99999999999997" height="0" width="91.47540983606557"></rect><rect x="416.7213114754098" y="350" height="0" width="91.47540983606557"></rect><rect x="518.3606557377049" y="250" height="130" width="91.47540983606557"></rect></g><g fill="#701C1C"><rect x="10.163934426229503" y="310" height="90" width="91.47540983606557"></rect><rect x="111.80327868852457" y="120.00000000000001" height="109.99999999999996" width="91.47540983606557"></rect><rect x="213.44262295081964" y="210" height="70" width="91.47540983606557"></rect><rect x="315.0819672131147" y="179.99999999999997" height="50" width="91.47540983606557"></rect><rect x="416.7213114754098" y="350" height="0" width="91.47540983606557"></rect><rect x="518.3606557377049" y="190" height="60" width="91.47540983606557"></rect></g><g fill="#249324"><rect x="10.163934426229503" y="310" height="0" width="91.47540983606557"></rect><rect x="111.80327868852457" y="100" height="20.000000000000014" width="91.47540983606557"></rect><rect x="213.44262295081964" y="170.00000000000003" height="39.99999999999997" width="91.47540983606557"></rect><rect x="315.0819672131147" y="39.99999999999999" height="139.99999999999997" width="91.47540983606557"></rect><rect x="416.7213114754098" y="190" height="160" width="91.47540983606557"></rect><rect x="518.3606557377049" y="190" height="0" width="91.47540983606557"></rect></g><g fill="#167E7E"><rect x="10.163934426229503" y="310" height="0" width="91.47540983606557"></rect><rect x="111.80327868852457" y="100" height="0" width="91.47540983606557"></rect><rect x="213.44262295081964" y="100" height="70.00000000000003" width="91.47540983606557"></rect><rect x="315.0819672131147" y="39.99999999999999" height="0" width="91.47540983606557"></rect><rect x="416.7213114754098" y="100" height="90" width="91.47540983606557"></rect><rect x="518.3606557377049" y="160" height="30" width="91.47540983606557"></rect></g><g fill="#FF5733"><rect x="10.163934426229503" y="310" height="0" width="91.47540983606557"></rect><rect x="111.80327868852457" y="100" height="0" width="91.47540983606557"></rect><rect x="213.44262295081964" y="100" height="0" width="91.47540983606557"></rect><rect x="315.0819672131147" y="39.99999999999999" height="0" width="91.47540983606557"></rect><rect x="416.7213114754098" y="100" height="0" width="91.47540983606557"></rect><rect x="518.3606557377049" y="160" height="0" width="91.47540983606557"></rect></g><g fill="#33FF57"><rect x="10.163934426229503" y="310" height="0" width="91.47540983606557"></rect><rect x="111.80327868852457" y="100" height="0" width="91.47540983606557"></rect><rect x="213.44262295081964" y="100" height="0" width="91.47540983606557"></rect><rect x="315.0819672131147" y="39.99999999999999" height="0" width="91.47540983606557"></rect><rect x="416.7213114754098" y="100" height="0" width="91.47540983606557"></rect><rect x="518.3606557377049" y="160" height="0" width="91.47540983606557"></rect></g><g fill="#3357FF"><rect x="10.163934426229503" y="310" height="0" width="91.47540983606557"></rect><rect x="111.80327868852457" y="100" height="0" width="91.47540983606557"></rect><rect x="213.44262295081964" y="100" height="0" width="91.47540983606557"></rect><rect x="315.0819672131147" y="39.99999999999999" height="0" width="91.47540983606557"></rect><rect x="416.7213114754098" y="100" height="0" width="91.47540983606557"></rect><rect x="518.3606557377049" y="160" height="0" width="91.47540983606557"></rect></g><g fill="#FF33A1"><rect x="10.163934426229503" y="310" height="0" width="91.47540983606557"></rect><rect x="111.80327868852457" y="100" height="0" width="91.47540983606557"></rect><rect x="213.44262295081964" y="100" height="0" width="91.47540983606557"></rect><rect x="315.0819672131147" y="39.99999999999999" height="0" width="91.47540983606557"></rect><rect x="416.7213114754098" y="100" height="0" width="91.47540983606557"></rect><rect x="518.3606557377049" y="160" height="0" width="91.47540983606557"></rect></g><g fill="#FFD700"><rect x="10.163934426229503" y="310" height="0" width="91.47540983606557"></rect><rect x="111.80327868852457" y="100" height="0" width="91.47540983606557"></rect><rect x="213.44262295081964" y="100" height="0" width="91.47540983606557"></rect><rect x="315.0819672131147" y="39.99999999999999" height="0" width="91.47540983606557"></rect><rect x="416.7213114754098" y="100" height="0" width="91.47540983606557"></rect><rect x="518.3606557377049" y="160" height="0" width="91.47540983606557"></rect></g><g class="x-axis" transform="translate(0,400)" fill="none" font-size="10" font-family="sans-serif" text-anchor="middle"><path class="domain" stroke="currentColor" d="M0.5,6V0.5H620.5V6"></path><g class="tick" opacity="1" transform="translate(55.901639344262286,0)"><line stroke="currentColor" y2="6"></line><text fill="currentColor" y="9" dy=".15em" style="text-anchor: end;" dx="-.8em" transform="rotate(-45)">7/2024</text></g><g class="tick" opacity="1" transform="translate(157.54098360655735,0)"><line stroke="currentColor" y2="6"></line><text fill="currentColor" y="9" dy=".15em" style="text-anchor: end;" dx="-.8em" transform="rotate(-45)">6/2024</text></g><g class="tick" opacity="1" transform="translate(259.18032786885243,0)"><line stroke="currentColor" y2="6"></line><text fill="currentColor" y="9" dy=".15em" style="text-anchor: end;" dx="-.8em" transform="rotate(-45)">5/2024</text></g><g class="tick" opacity="1" transform="translate(360.81967213114746,0)"><line stroke="currentColor" y2="6"></line><text fill="currentColor" y="9" dy=".15em" style="text-anchor: end;" dx="-.8em" transform="rotate(-45)">4/2024</text></g><g class="tick" opacity="1" transform="translate(462.45901639344254,0)"><line stroke="currentColor" y2="6"></line><text fill="currentColor" y="9" dy=".15em" style="text-anchor: end;" dx="-.8em" transform="rotate(-45)">3/2024</text></g><g class="tick" opacity="1" transform="translate(564.0983606557377,0)"><line stroke="currentColor" y2="6"></line><text fill="currentColor" y="9" dy=".15em" style="text-anchor: end;" dx="-.8em" transform="rotate(-45)">2/2024</text></g></g><g class="y-axis" fill="none" font-size="10" font-family="sans-serif" text-anchor="end"><path class="domain" stroke="currentColor" d="M-6,400.5H0.5V0.5H-6"></path><g class="tick" opacity="1" transform="translate(0,400.5)"><line stroke="currentColor" x2="-6"></line><text fill="currentColor" x="-9" dy="0.32em">0</text></g><g class="tick" opacity="1" transform="translate(0,350.5)"><line stroke="currentColor" x2="-6"></line><text fill="currentColor" x="-9" dy="0.32em">5</text></g><g class="tick" opacity="1" transform="translate(0,300.5)"><line stroke="currentColor" x2="-6"></line><text fill="currentColor" x="-9" dy="0.32em">10</text></g><g class="tick" opacity="1" transform="translate(0,250.5)"><line stroke="currentColor" x2="-6"></line><text fill="currentColor" x="-9" dy="0.32em">15</text></g><g class="tick" opacity="1" transform="translate(0,200.5)"><line stroke="currentColor" x2="-6"></line><text fill="currentColor" x="-9" dy="0.32em">20</text></g><g class="tick" opacity="1" transform="translate(0,150.5)"><line stroke="currentColor" x2="-6"></line><text fill="currentColor" x="-9" dy="0.32em">25</text></g><g class="tick" opacity="1" transform="translate(0,100.5)"><line stroke="currentColor" x2="-6"></line><text fill="currentColor" x="-9" dy="0.32em">30</text></g><g class="tick" opacity="1" transform="translate(0,50.5)"><line stroke="currentColor" x2="-6"></line><text fill="currentColor" x="-9" dy="0.32em">35</text></g><g class="tick" opacity="1" transform="translate(0,0.5)"><line stroke="currentColor" x2="-6"></line><text fill="currentColor" x="-9" dy="0.32em">40</text></g></g><text x="310" y="-50" text-anchor="middle" style="font-size: 20px; fill: black;">Commits by Members (per month for the past 6 months)</text><g class="legend" transform="translate(0, 450)"><g class="legend-item" transform="translate(0,0)"><rect x="0" y="0" width="10" height="10" fill="#B20000"></rect><text x="15" y="5" style="font-size: 12px;" alignment-baseline="middle">amyranotamirror</text></g><g class="legend-item" transform="translate(120,0)"><rect x="0" y="0" width="10" height="10" fill="#0073A5"></rect><text x="15" y="5" style="font-size: 12px;" alignment-baseline="middle">cudothanh-Nhan</text></g><g class="legend-item" transform="translate(240,0)"><rect x="0" y="0" width="10" height="10" fill="#B2B200"></rect><text x="15" y="5" style="font-size: 12px;" alignment-baseline="middle">hoangluong202</text></g><g class="legend-item" transform="translate(360,0)"><rect x="0" y="0" width="10" height="10" fill="#B200B2"></rect><text x="15" y="5" style="font-size: 12px;" alignment-baseline="middle">Huy-DNA</text></g><g class="legend-item" transform="translate(480,0)"><rect x="0" y="0" width="10" height="10" fill="#483D8B"></rect><text x="15" y="5" style="font-size: 12px;" alignment-baseline="middle">huynhhoangkha</text></g><g class="legend-item" transform="translate(600,0)"><rect x="0" y="0" width="10" height="10" fill="#CC8400"></rect><text x="15" y="5" style="font-size: 12px;" alignment-baseline="middle">Kiet0712</text></g><g class="legend-item" transform="translate(0,20)"><rect x="0" y="0" width="10" height="10" fill="#00008B"></rect><text x="15" y="5" style="font-size: 12px;" alignment-baseline="middle">Minhtuei</text></g><g class="legend-item" transform="translate(120,20)"><rect x="0" y="0" width="10" height="10" fill="#3B4B27"></rect><text x="15" y="5" style="font-size: 12px;" alignment-baseline="middle">ngyngcphu</text></g><g class="legend-item" transform="translate(240,20)"><rect x="0" y="0" width="10" height="10" fill="#54586B"></rect><text x="15" y="5" style="font-size: 12px;" alignment-baseline="middle">nhthlinh</text></g><g class="legend-item" transform="translate(360,20)"><rect x="0" y="0" width="10" height="10" fill="#701C1C"></rect><text x="15" y="5" style="font-size: 12px;" alignment-baseline="middle">phucvinh57</text></g><g class="legend-item" transform="translate(480,20)"><rect x="0" y="0" width="10" height="10" fill="#249324"></rect><text x="15" y="5" style="font-size: 12px;" alignment-baseline="middle">quannhg</text></g><g class="legend-item" transform="translate(600,20)"><rect x="0" y="0" width="10" height="10" fill="#167E7E"></rect><text x="15" y="5" style="font-size: 12px;" alignment-baseline="middle">TanNguyen17112003</text></g><g class="legend-item" transform="translate(0,40)"><rect x="0" y="0" width="10" height="10" fill="#FF5733"></rect><text x="15" y="5" style="font-size: 12px;" alignment-baseline="middle">teddylethal</text></g><g class="legend-item" transform="translate(120,40)"><rect x="0" y="0" width="10" height="10" fill="#33FF57"></rect><text x="15" y="5" style="font-size: 12px;" alignment-baseline="middle">ThaiNguyenGiaBao</text></g><g class="legend-item" transform="translate(240,40)"><rect x="0" y="0" width="10" height="10" fill="#3357FF"></rect><text x="15" y="5" style="font-size: 12px;" alignment-baseline="middle">thaitran24</text></g><g class="legend-item" transform="translate(360,40)"><rect x="0" y="0" width="10" height="10" fill="#FF33A1"></rect><text x="15" y="5" style="font-size: 12px;" alignment-baseline="middle">TranLam2004</text></g><g class="legend-item" transform="translate(480,40)"><rect x="0" y="0" width="10" height="10" fill="#FFD700"></rect><text x="15" y="5" style="font-size: 12px;" alignment-baseline="middle">VuHuy-cse-9</text></g></g></g></svg>