<svg xmlns="http://www.w3.org/2000/svg" style="background-color: rgb(240, 240, 240);" width="800" height="400"><g transform="translate(300,200)"><g class="arc"><path d="M0,-149A149,149,0,0,1,147.655,-19.979L0,0Z" fill="#B20000"></path></g><g class="arc"><path d="M147.655,-19.979A149,149,0,0,1,148.616,-10.688L0,0Z" fill="#0073A5"></path></g><g class="arc"><path d="M148.616,-10.688A149,149,0,0,1,148.67,-9.907L0,0Z" fill="#B2B200"></path></g><g class="arc"><path d="M148.67,-9.907A149,149,0,0,1,143.859,38.803L0,0Z" fill="#B200B2"></path></g><g class="arc"><path d="M143.859,38.803A149,149,0,0,1,143.433,40.349L0,0Z" fill="#483D8B"></path></g><g class="arc"><path d="M143.433,40.349A149,149,0,0,1,142.156,44.638L0,0Z" fill="#CC8400"></path></g><g class="arc"><path d="M142.156,44.638A149,149,0,0,1,142.076,44.894L0,0Z" fill="#00008B"></path></g><g class="arc"><path d="M142.076,44.894A149,149,0,1,1,-90.765,-118.164L0,0Z" fill="#3B4B27"></path></g><g class="arc"><path d="M-90.765,-118.164A149,149,0,0,1,-34.714,-144.9L0,0Z" fill="#54586B"></path></g><g class="arc"><path d="M-34.714,-144.9A149,149,0,0,1,-25.248,-146.845L0,0Z" fill="#701C1C"></path></g><g class="arc"><path d="M-25.248,-146.845A149,149,0,0,1,-21.479,-147.444L0,0Z" fill="#249324"></path></g><g class="arc"><path d="M-21.479,-147.444A149,149,0,0,1,-20.986,-147.515L0,0Z" fill="#167E7E"></path></g><g class="arc"><path d="M-20.986,-147.515A149,149,0,0,1,-20.7,-147.555L0,0Z" fill="#FF5733"></path></g><g class="arc"><path d="M-20.7,-147.555A149,149,0,0,1,-20.676,-147.558L0,0Z" fill="#33FF57"></path></g><g class="arc"><path d="M-20.676,-147.558A149,149,0,0,1,-20.669,-147.56L0,0Z" fill="#3357FF"></path></g><g class="arc"><path d="M-20.669,-147.56A149,149,0,0,1,-7.97,-148.787L0,0Z" fill="#FF33A1"></path></g><g class="arc"><path d="M-7.97,-148.787A149,149,0,0,1,-5.826,-148.886L0,0Z" fill="#FFD700"></path></g><g class="arc"><path d="M-5.826,-148.886A149,149,0,0,1,-2.358,-148.981L0,0Z" fill="#8A2BE2"></path></g><g class="arc"><path d="M-2.358,-148.981A149,149,0,0,1,-0.522,-148.999L0,0Z" fill="#DC143C"></path></g><g class="arc"><path d="M-0.522,-148.999A149,149,0,0,1,0,-149L0,0Z" fill="#FF8C00"></path></g><g transform="translate(200, -150)"><g class="legend-item" transform="translate(0, 0)"><rect x="-20" width="10" height="10" fill="#B20000"></rect><text x="0" y="6" dy=".35em" style="text-anchor: start;">TypeScript: 22.86%</text></g><g class="legend-item" transform="translate(0, 20)"><rect x="-20" width="10" height="10" fill="#0073A5"></rect><text x="0" y="6" dy=".35em" style="text-anchor: start;">JavaScript: 1.00%</text></g><g class="legend-item" transform="translate(0, 40)"><rect x="-20" width="10" height="10" fill="#B2B200"></rect><text x="0" y="6" dy=".35em" style="text-anchor: start;">Dockerfile: 0.08%</text></g><g class="legend-item" transform="translate(0, 60)"><rect x="-20" width="10" height="10" fill="#B200B2"></rect><text x="0" y="6" dy=".35em" style="text-anchor: start;">Shell: 5.25%</text></g><g class="legend-item" transform="translate(0, 80)"><rect x="-20" width="10" height="10" fill="#483D8B"></rect><text x="0" y="6" dy=".35em" style="text-anchor: start;">CSS: 0.17%</text></g><g class="legend-item" transform="translate(0, 100)"><rect x="-20" width="10" height="10" fill="#CC8400"></rect><text x="0" y="6" dy=".35em" style="text-anchor: start;">HTML: 0.48%</text></g><g class="legend-item" transform="translate(0, 120)"><rect x="-20" width="10" height="10" fill="#00008B"></rect><text x="0" y="6" dy=".35em" style="text-anchor: start;">PLpgSQL: 0.03%</text></g><g class="legend-item" transform="translate(0, 140)"><rect x="-20" width="10" height="10" fill="#3B4B27"></rect><text x="0" y="6" dy=".35em" style="text-anchor: start;">Python: 59.70%</text></g><g class="legend-item" transform="translate(0, 160)"><rect x="-20" width="10" height="10" fill="#54586B"></rect><text x="0" y="6" dy=".35em" style="text-anchor: start;">Dart: 6.68%</text></g><g class="legend-item" transform="translate(0, 180)"><rect x="-20" width="10" height="10" fill="#701C1C"></rect><text x="0" y="6" dy=".35em" style="text-anchor: start;">C++: 1.03%</text></g><g class="legend-item" transform="translate(0, 200)"><rect x="-20" width="10" height="10" fill="#249324"></rect><text x="0" y="6" dy=".35em" style="text-anchor: start;">CMake: 0.41%</text></g><g class="legend-item" transform="translate(0, 220)"><rect x="-20" width="10" height="10" fill="#167E7E"></rect><text x="0" y="6" dy=".35em" style="text-anchor: start;">Swift: 0.05%</text></g><g class="legend-item" transform="translate(0, 240)"><rect x="-20" width="10" height="10" fill="#FF5733"></rect><text x="0" y="6" dy=".35em" style="text-anchor: start;">C: 0.03%</text></g><g class="legend-item" transform="translate(0, 260)"><rect x="-20" width="10" height="10" fill="#33FF57"></rect><text x="0" y="6" dy=".35em" style="text-anchor: start;">Kotlin: 0.00%</text></g><g class="legend-item" transform="translate(0, 280)"><rect x="-20" width="10" height="10" fill="#3357FF"></rect><text x="0" y="6" dy=".35em" style="text-anchor: start;">Objective-C: 0.00%</text></g><g class="legend-item" transform="translate(0, 300)"><rect x="-20" width="10" height="10" fill="#FF33A1"></rect><text x="0" y="6" dy=".35em" style="text-anchor: start;">Rust: 1.36%</text></g><g class="legend-item" transform="translate(0, 320)"><rect x="-20" width="10" height="10" fill="#FFD700"></rect><text x="0" y="6" dy=".35em" style="text-anchor: start;">Go: 0.23%</text></g><g class="legend-item" transform="translate(0, 340)"><rect x="-20" width="10" height="10" fill="#8A2BE2"></rect><text x="0" y="6" dy=".35em" style="text-anchor: start;">Cuda: 0.37%</text></g><g class="legend-item" transform="translate(0, 360)"><rect x="-20" width="10" height="10" fill="#DC143C"></rect><text x="0" y="6" dy=".35em" style="text-anchor: start;">Vue: 0.20%</text></g><g class="legend-item" transform="translate(0, 380)"><rect x="-20" width="10" height="10" fill="#FF8C00"></rect><text x="0" y="6" dy=".35em" style="text-anchor: start;">Cython: 0.06%</text></g></g><text x="0" y="-180" text-anchor="middle" style="font-size: 20px; fill: black;">Total Languages</text></g></svg>