<svg xmlns="http://www.w3.org/2000/svg" style="background-color: rgb(240, 240, 240);" width="800" height="400"><g transform="translate(300,200)"><g class="arc"><path d="M0,-149A149,149,0,1,1,-42.653,142.765L0,0Z" fill="#B20000"></path></g><g class="arc"><path d="M-42.653,142.765A149,149,0,0,1,-49.238,140.629L0,0Z" fill="#0073A5"></path></g><g class="arc"><path d="M-49.238,140.629A149,149,0,0,1,-50.994,140.002L0,0Z" fill="#B2B200"></path></g><g class="arc"><path d="M-50.994,140.002A149,149,0,0,1,-54.713,138.591L0,0Z" fill="#B200B2"></path></g><g class="arc"><path d="M-54.713,138.591A149,149,0,0,1,-57.299,137.542L0,0Z" fill="#483D8B"></path></g><g class="arc"><path d="M-57.299,137.542A149,149,0,0,1,-66.527,133.323L0,0Z" fill="#CC8400"></path></g><g class="arc"><path d="M-66.527,133.323A149,149,0,0,1,-67.098,133.037L0,0Z" fill="#00008B"></path></g><g class="arc"><path d="M-67.098,133.037A149,149,0,0,1,-148.996,1.086L0,0Z" fill="#3B4B27"></path></g><g class="arc"><path d="M-148.996,1.086A149,149,0,0,1,-147.747,-19.28L0,0Z" fill="#54586B"></path></g><g class="arc"><path d="M-147.747,-19.28A149,149,0,0,1,-145.477,-32.21L0,0Z" fill="#701C1C"></path></g><g class="arc"><path d="M-145.477,-32.21A149,149,0,0,1,-145.153,-33.638L0,0Z" fill="#249324"></path></g><g class="arc"><path d="M-145.153,-33.638A149,149,0,0,1,-50.003,-140.359L0,0Z" fill="#167E7E"></path></g><g class="arc"><path d="M-50.003,-140.359A149,149,0,0,1,-48.884,-140.753L0,0Z" fill="#FF5733"></path></g><g class="arc"><path d="M-48.884,-140.753A149,149,0,0,1,-48.829,-140.772L0,0Z" fill="#33FF57"></path></g><g class="arc"><path d="M-48.829,-140.772A149,149,0,0,1,-48.812,-140.778L0,0Z" fill="#3357FF"></path></g><g class="arc"><path d="M-48.812,-140.778A149,149,0,0,1,-5.115,-148.912L0,0Z" fill="#FF33A1"></path></g><g class="arc"><path d="M-5.115,-148.912A149,149,0,0,1,0,-149L0,0Z" fill="#FFD700"></path></g><g transform="translate(200, -150)"><g class="legend-item" transform="translate(0, 0)"><rect x="-20" width="10" height="10" fill="#B20000"></rect><text x="0" y="6" dy=".35em" style="text-anchor: start;">TypeScript: 54.62%</text></g><g class="legend-item" transform="translate(0, 20)"><rect x="-20" width="10" height="10" fill="#0073A5"></rect><text x="0" y="6" dy=".35em" style="text-anchor: start;">JavaScript: 0.74%</text></g><g class="legend-item" transform="translate(0, 40)"><rect x="-20" width="10" height="10" fill="#B2B200"></rect><text x="0" y="6" dy=".35em" style="text-anchor: start;">Dockerfile: 0.20%</text></g><g class="legend-item" transform="translate(0, 60)"><rect x="-20" width="10" height="10" fill="#B200B2"></rect><text x="0" y="6" dy=".35em" style="text-anchor: start;">Shell: 0.42%</text></g><g class="legend-item" transform="translate(0, 80)"><rect x="-20" width="10" height="10" fill="#483D8B"></rect><text x="0" y="6" dy=".35em" style="text-anchor: start;">CSS: 0.30%</text></g><g class="legend-item" transform="translate(0, 100)"><rect x="-20" width="10" height="10" fill="#CC8400"></rect><text x="0" y="6" dy=".35em" style="text-anchor: start;">HTML: 1.08%</text></g><g class="legend-item" transform="translate(0, 120)"><rect x="-20" width="10" height="10" fill="#00008B"></rect><text x="0" y="6" dy=".35em" style="text-anchor: start;">PLpgSQL: 0.07%</text></g><g class="legend-item" transform="translate(0, 140)"><rect x="-20" width="10" height="10" fill="#3B4B27"></rect><text x="0" y="6" dy=".35em" style="text-anchor: start;">Python: 17.45%</text></g><g class="legend-item" transform="translate(0, 160)"><rect x="-20" width="10" height="10" fill="#54586B"></rect><text x="0" y="6" dy=".35em" style="text-anchor: start;">CMake: 2.18%</text></g><g class="legend-item" transform="translate(0, 180)"><rect x="-20" width="10" height="10" fill="#701C1C"></rect><text x="0" y="6" dy=".35em" style="text-anchor: start;">C++: 1.40%</text></g><g class="legend-item" transform="translate(0, 200)"><rect x="-20" width="10" height="10" fill="#249324"></rect><text x="0" y="6" dy=".35em" style="text-anchor: start;">C: 0.16%</text></g><g class="legend-item" transform="translate(0, 220)"><rect x="-20" width="10" height="10" fill="#167E7E"></rect><text x="0" y="6" dy=".35em" style="text-anchor: start;">Dart: 15.93%</text></g><g class="legend-item" transform="translate(0, 240)"><rect x="-20" width="10" height="10" fill="#FF5733"></rect><text x="0" y="6" dy=".35em" style="text-anchor: start;">Swift: 0.13%</text></g><g class="legend-item" transform="translate(0, 260)"><rect x="-20" width="10" height="10" fill="#33FF57"></rect><text x="0" y="6" dy=".35em" style="text-anchor: start;">Kotlin: 0.01%</text></g><g class="legend-item" transform="translate(0, 280)"><rect x="-20" width="10" height="10" fill="#3357FF"></rect><text x="0" y="6" dy=".35em" style="text-anchor: start;">Objective-C: 0.00%</text></g><g class="legend-item" transform="translate(0, 300)"><rect x="-20" width="10" height="10" fill="#FF33A1"></rect><text x="0" y="6" dy=".35em" style="text-anchor: start;">Rust: 4.77%</text></g><g class="legend-item" transform="translate(0, 320)"><rect x="-20" width="10" height="10" fill="#FFD700"></rect><text x="0" y="6" dy=".35em" style="text-anchor: start;">Go: 0.55%</text></g></g><text x="0" y="-180" text-anchor="middle" style="font-size: 20px; fill: black;">Total Languages</text></g></svg>